<svg id="vs-logo" width="100%" viewBox="0 0 700 200" version="1.1" xmlns:xlink="http://www.w3.org/1999/xlink" xmlns="http://www.w3.org/2000/svg" preserveAspectRatio="xMidYMid meet" overflow="visible">

	<style>
		:root {
			--interval: 0.7s;
			--half: 0.35s;
		}
		#drip {
			position: relative;
			z-index: 2;
		}
	</style>

	<svg id="waves" width="100%" viewBox="0 0 700 200" version="1.1" xmlns:xlink="http://www.w3.org/1999/xlink" xmlns="http://www.w3.org/2000/svg" preserveAspectRatio="xMidYMid meet" overflow="visible">

		<defs>
			<linearGradient id="wave-gradient">
				<stop offset="0%" stop-color="#dceefa" />
				<stop offset="1%" stop-color="#6dbae9cf" />
				<stop offset="11%" stop-color="#dceefa" />
				<stop offset="12%" stop-color="#6dbae9cf" />
				<stop offset="22%" stop-color="#f7fbfe" />
				<stop offset="23%" stop-color="#6dbae9cf" />
				<stop offset="33%" stop-color="#f7fbfe" />
				<stop offset="34%" stop-color="#6dbae9cf" />
				<stop offset="44%" stop-color="#dceefa" />
				<stop offset="45%" stop-color="#6dbae9cf" />
				<stop offset="55%" stop-color="#dceefa" />
				<stop offset="56%" stop-color="#6dbae9cf" />
				<stop offset="66%" stop-color="#dceefa" />
				<stop offset="67%" stop-color="#6dbae9cf" />
				<stop offset="77%" stop-color="#dceefa" />
				<stop offset="78%" stop-color="#6dbae9cf" />
				<stop offset="88%" stop-color="#dceefa" />
				<stop offset="89%" stop-color="#6dbae9cf" />
				<stop offset="99%" stop-color="#dceefa" />
				<stop offset="100%" stop-color="#6dbae9cf" />
			</linearGradient>

			<ellipse id="wave" cx="350" cy="100" rx="329.7" ry="39.2" fill="none" stroke="url(#wave-gradient)" stroke-width="3.5px"/>
		</defs>

		<style>
			:root {
				--vs-blue: #17699c;

				--base-interval: var(--interval, 0.7s);
				--base-2x: calc(var(--base-interval) * 2);
				--base-3x: calc(var(--base-interval) * 3);
				--base-4x: calc(var(--base-interval) * 4);
				--base-half: var(--half, 0.35s);
				--base-iterations: 7;
			}

			:root {
				--wave-start-delay: 0s;
				--wave-base-delay: var(--interval, 1s);
				--wave-delay-0: 0s;
				--wave-delay-1: calc(var(--wave-base-delay) * 1);
				--wave-delay-2: calc(var(--wave-base-delay) * 2);
				--wave-delay-3: calc(var(--wave-base-delay) * 3);
				--wave-delay-4: calc(var(--wave-base-delay) * 4);
				--wave-delay-5: calc(var(--wave-base-delay) * 5);
				--wave-delay-6: calc(var(--wave-base-delay) * 6);
				--wave-delay-7: calc(var(--wave-base-delay) * 7);
				--wave-duration: 2.5s;
				--wave-iterations: 1;
				--wave-state: running;
			}


			.wave {
				transform-origin: center;
				scale: 0.1;
				opacity: 0;
				animation: wave var(--wave-duration) linear var(--wave-iterations);
				animation-play-state: var(--wave-state);
			}

			.wave-0 {
				animation-delay: var(--wave-delay-0);
			}

			.wave-1 {
				animation-delay: var(--wave-delay-1);
			}

			.wave-2 {
				animation-delay: var(--wave-delay-2);
			}

			.wave-3 {
				animation-delay: var(--wave-delay-3);
			}

			.wave-4 {
				animation-delay: var(--wave-delay-4);
			}

			.wave-5 {
				animation-delay: var(--wave-delay-5);
			}

			.wave-6 {
				animation-delay: var(--wave-delay-6);
			}

			.wave-7 {
				animation-delay: var(--wave-delay-7);
			}

			@keyframes wave {
				0% {
					scale: 0.175;
					opacity: 0.15;
				}

				80% {
					scale: 0.8;
					opacity: 0.30
				}

				100% {
					scale: 1;
					opacity: 0
				}
			}
		</style>

		<use href="#wave" class="wave wave-1" />
		<use href="#wave" class="wave wave-2" />
		<use href="#wave" class="wave wave-3" />
		<use href="#wave" class="wave wave-4" />
		<use href="#wave" class="wave wave-5" />
		<use href="#wave" class="wave wave-6" />
		<use href="#wave" class="wave wave-7" />

	</svg>

	<svg id="logo" transform-origin="center" width="100%" viewBox="0 0 700 200" preserveAspectRatio="xMidYMid meet" version="1.1"  xmlns:xlink="http://www.w3.org/1999/xlink" xmlns="http://www.w3.org/2000/svg" xml:space="preserve">

		<style>
			#tagline-animation {
				transform-origin: center;
				transform: translate(-50%, -50%);
			}
		</style>

		<svg id="reflection" width="100%" height="100%" viewBox="0 0 700 200" style="fill-rule:evenodd;clip-rule:evenodd;stroke-linejoin:round;stroke-miterlimit:2;">

			<style>
					:root {
						--reflection-delay: calc(var(--base-2x) * 2 + var(--base-interval) - 1.3s);
						--reflection-duration: var(--base-4x);
						--reflection-state: running;
					}

					#reflection {
						animation: logo-reflection var(--reflection-duration) ease-in-out var(--reflection-delay) forwards;
						animation-play-state: var(--reflection-state);
						left: 0;
						opacity: 0;
						position: absolute;
						top: 0;
					}
			</style>

			<ellipse id="reflection-glass" cx="350" cy="99.1" rx="329.7" ry="39.2"
				style="fill:#fff;fill-opacity:0.33;" />

			<g id="reflection-left">
					<path id="reflection-left-v" d="M43.887,112.799l33.836,7.622l-6.83,-19.032l-22.942,0l-4.064,11.41Z" style="fill:#3f3f3f;fill-rule:nonzero;"/>
					<path id="reflection-left-i" d="M119.245,101.39l0,24.954l-21.02,-2.206l0,-22.748l21.02,0Z" style="fill:#3f3f3f;fill-rule:nonzero;"/>
					<path id="reflection-left-r" d="M123.902,126.099l21.02,2.645l0,-27.355l-21.02,0.001l0,24.709Z" style="fill:#3f3f3f;fill-rule:nonzero;"/>
					<path id="reflection-left-t" d="M204.289,100.069c-8.569,-0.001 -14.804,1.761 -18.708,5.284c-3.904,3.524 -5.856,9.289 -5.856,17.297l-0,9.598l21.021,-1.97c-0,-2.363 0.02,-4.425 0.06,-6.186c0.04,-1.762 0.36,-3.344 0.961,-4.745c0.56,-1.401 1.55,-2.512 2.973,-3.333c1.421,-0.821 3.493,-1.231 6.216,-1.231c1.121,0 2.592,0.24 4.413,0.72c1.822,0.481 5.615,1.322 5.615,1.322l-0,-14.835c-2.282,-0.601 -4.704,-1.071 -7.267,-1.411c-2.562,-0.341 -5.705,-0.511 -9.429,-0.511l0.001,0.001Z" style="fill:#3f3f3f;fill-rule:nonzero;"/>
					<path id="reflection-left-u" d="M288.033,101.39l-21.022,-0.001l0,7.448c-3.642,-3.043 -6.986,-5.355 -10.029,-6.936c-3.043,-1.582 -6.667,-2.372 -10.871,-2.372c-6.687,0 -11.901,2.112 -15.645,6.336c-3.744,4.224 -5.615,10.58 -5.615,19.068l0,9.58l21.141,0.871c0,-3.484 0.09,-6.327 0.27,-8.529c0.18,-2.202 0.611,-4.064 1.291,-5.585c0.641,-1.401 1.632,-2.463 2.973,-3.183c1.342,-0.721 3.213,-1.081 5.615,-1.081c1.481,0 3.233,0.36 5.255,1.081c2.022,0.72 3.894,1.701 5.615,2.943l0,15.783l21.022,0.054l0,-35.477Z" style="fill:#3f3f3f;fill-rule:nonzero;"/>
					<path id="reflection-left-a" d="M333.556,118.987l0,14.054c-3.565,-0.361 -6.447,-0.671 -8.649,-0.932c-2.202,-0.26 -4.364,-0.77 -6.486,-1.531c-1.842,-0.641 -3.274,-1.612 -4.294,-2.913c-1.022,-1.301 -1.532,-3.033 -1.532,-5.195c0,-3.163 0.851,-5.335 2.553,-6.516c1.702,-1.181 4.214,-1.772 7.536,-1.772c1.842,0 3.724,0.42 5.647,1.261c1.922,0.841 3.663,2.022 5.225,3.544Zm-0.001,-10.449c-1.442,-1.201 -2.733,-2.282 -3.874,-3.243c-1.141,-0.961 -2.673,-1.922 -4.594,-2.883c-1.882,-0.92 -3.714,-1.621 -5.496,-2.102c-1.782,-0.48 -4.274,-0.72 -7.477,-0.72c-5.966,0 -10.921,2.002 -14.865,6.006c-3.943,4.003 -5.915,9.048 -5.915,15.134c-0,5.005 1.001,9.049 3.003,12.132c2.002,3.083 60.118,5.611 60.118,5.611l-0,-37.082l-20.9,0l-0,7.147Z" style="fill:#3f3f3f;fill-rule:nonzero;"/>
					<path id="reflection-left-l" d="M380.208,101.39l-21.022,-0.001l0,36.587l21.022,0.495l0,-37.081Z" style="fill:#3f3f3f;fill-rule:nonzero;"/>
			</g>
			<g id="reflection-right">
					<path id="reflection-right-s" d="M416.399,99.769c-6.847,-0.001 -12.863,0.66 -18.048,1.981c-5.185,1.322 -10,2.963 -14.445,4.925l0,21.261c0,0 11.471,-6.726 16.877,-8.768c5.405,-2.042 10.65,-3.063 15.736,-3.063c1.281,0 2.973,0.14 5.075,0.42c2.101,0.281 3.793,0.721 5.075,1.322c1.56,0.68 2.882,1.631 3.964,2.852c1.081,1.222 1.62,2.833 1.62,4.835c0,2.242 -0.88,4.064 -2.642,5.464c-1.762,1.402 -3.863,2.423 -6.307,3.063c-3.041,0.801 -6.296,1.563 -9.759,2.284c-3.463,0.719 40.106,3.176 40.844,0.18c0.538,-2.188 0.808,-4.589 0.808,-7.207c0,-8.889 -3.495,-16.037 -10.481,-21.442c-6.986,-5.404 -16.426,-8.108 -28.317,-8.108l0,0.001Z" style="fill:#17699c;fill-rule:nonzero;"/>
					<path id="reflection-right-t" d="M488.094,100.069c-8.57,-0.001 -14.805,1.761 -18.709,5.284c-3.904,3.524 -5.856,9.289 -5.856,17.297l0,13.874l21.02,-1.541c0,0 0.02,-9.129 0.06,-10.891c0.041,-1.761 0.361,-3.343 0.962,-4.745c0.56,-1.4 1.552,-2.511 2.973,-3.332c1.422,-0.822 3.494,-1.231 6.216,-1.231c1.12,-0.001 2.593,0.239 4.415,0.719c1.821,0.481 3.093,0.922 3.813,1.323l1.802,-14.835c-2.282,-0.601 -4.704,-1.071 -7.267,-1.411c-2.563,-0.341 -5.707,-0.511 -9.429,-0.511Z" style="fill:#17699c;fill-rule:nonzero;"/>
					<path id="reflection-right-y" d="M521.024,132.827l42.986,-3.642l-13.504,-26.669l-18.274,0.495l-11.208,29.816Z" style="fill:#17699c;fill-rule:nonzero;"/>
					<path id="reflection-right-l" d="M603.24,101.39l-21.02,-0.001l0,25.802l21.019,-2.773l0,-23.029l0.001,0.001Z" style="fill:#17699c;fill-rule:nonzero;"/>
					<path id="reflection-right-e" d="M645.628,99.589c-12.732,-0.001 -22.491,3.043 -29.279,9.129c-4.397,3.942 -7.369,8.968 -8.918,15.079c-0.841,3.323 64.683,-18.623 64.683,-18.623c-1.721,-0.68 -3.293,-1.311 -4.715,-1.892c-1.422,-0.58 -3.374,-1.171 -5.856,-1.771c-2.282,-0.601 -4.635,-1.071 -7.057,-1.412c-2.422,-0.34 -5.375,-0.51 -8.859,-0.51l0.001,0Z" style="fill:#17699c;fill-rule:nonzero;"/>
			</g>

		</svg>

		<svg id="rings-svg" y="-2" transform-origin="center" width="100%"
			viewBox="0 0 700 200" preserveAspectRatio="xMidYMid meet"
			style="fill-rule:evenodd;clip-rule:evenodd;stroke-linecap:round;stroke-linejoin:round;stroke-miterlimit:1.5;">

			<style>
				:root {
					--timing-base: 0.5s;
					--timing-delay-base: 0.003;
					--timing-delay-multiple: 1;
					--rings-state: running;
					--rings-iterations: 8;
					--circles-per-segment: 49;

					--show-delay: calc(1s * var(--timing-delay-base) * (var(--circles-per-segment) - 2) * (var(--rings-iterations) - 2) + var(--timing-base) * (var(--rings-iterations) - 2));
				}

				#rings-animation {
					transform: scale(0) translate(50%, 50%);
					animation: rings-anim 2.1s ease-in-out forwards;
					transform-origin: center;
					z-index: 5;
				}

				#rings-surface {
					opacity: 0;
					animation: show var(--timing-base) var(--show-delay) forwards;
					animation-play-state: var(--rings-state);
				}

				.circle {
					opacity: 0;
					offset-path: path("M 20 100 a 330 40 0 1 0 660 0 a330 40 0 1 0 -660 0 Z");
					animation: move var(--timing-base) calc(var(--timing-base) * var(--timing-delay-base) * var(--timing-delay-multiple)) var(--rings-iterations) linear;
					animation-play-state: var(--rings-state);
				}

				.circle2 {
					opacity: 0;
					offset-path: path("M 680 100 a 330 40 0 1 0 -660 0 a330 40 0 1 0 660 0 Z");
					animation: move var(--timing-base) calc(var(--timing-base) * var(--timing-delay-base) * var(--timing-delay-multiple)) var(--rings-iterations) linear;
					animation-play-state: var(--rings-state);
				}

				.circle3 {
					opacity: 0;
					offset-path: path("M 350 60 a 330 40 0 1 0 0 80 a330 40 0 1 0 0 -80 Z");
					animation: move var(--timing-base) calc(var(--timing-base) * var(--timing-delay-base) * var(--timing-delay-multiple)) var(--rings-iterations) linear;
					animation-play-state: var(--rings-state);
				}

				.circle4 {
					opacity: 0;
					offset-path: path("M 350 140 a 330 40 0 1 0 0 -80 a330 40 0 1 0 0 80 Z");
					animation: move var(--timing-base) calc(var(--timing-base) * var(--timing-delay-base) * var(--timing-delay-multiple)) var(--rings-iterations) linear;
					animation-play-state: var(--rings-state);
				}

				@keyframes rings-anim {
					0% {
						transform: scale(0);
					}

					33% {
						transform: scale(0.33);
					}

					66% {
						transform: scale(0.66);
					}

					100% {
						transform: scale(1);
						opacity: 1;
					}
				}

				@keyframes show {
					0% {
						opacity: 0;
					}

					100% {
						opacity: 1;
					}
				}

				@keyframes move {
					0% {
						opacity: 0;
						offset-distance: 0%;
					}

					0% {
						opacity: 1;
						offset-distance: 0%;
					}

					100% {
						opacity: 1;
						offset-distance: 100%;
					}
				}
			</style>

			<defs>
				<circle id="circle" class="circle" cx="0" cy="0" r="3.5" fill="#3f3f3f" />
				<circle id="circle2" class="circle2" cx="0" cy="0" r="3.5"
					fill="#3f3f3f" />
				<circle id="circle3" class="circle3" cx="0" cy="0" r="3.5"
					fill="#17699c" />
				<circle id="circle4" class="circle4" cx="0" cy="0" r="3.5"
					fill="#17699c" />
			</defs>

			<g id="rings-animation">
				<g id="rings-surface">
					<path id="rings-black"
						d="M361.5,62.3c181.5,-0 303.3,18.7 313.7,33m-325,44.4c-181.6,-0 -311.6,-15.7 -329.7,-35.1"
						style="fill:none;stroke:#3f3f3f;stroke-width:7px;" />
					<path id="rings-blue"
						d="M678,105.5c-19.2,17.9 -133.7,34.6 -315.2,34.6m-338.3,-44.5c30.3,-19.5 143,-33.1 324.5,-33.1"
						style="fill:none;stroke:#17699c;stroke-width:7px;" />
				</g>

				<g id="circles">

					<g id="c1">
						<use href="#circle" />
						<use href="#circle" style="--timing-delay-multiple:2;" />
						<use href="#circle" style="--timing-delay-multiple:3;" />
						<use href="#circle" style="--timing-delay-multiple:4;" />
						<use href="#circle" style="--timing-delay-multiple:5;" />
						<use href="#circle" style="--timing-delay-multiple:6;" />
						<use href="#circle" style="--timing-delay-multiple:7;" />
						<use href="#circle" style="--timing-delay-multiple:8;" />
						<use href="#circle" style="--timing-delay-multiple:9;" />
						<use href="#circle" style="--timing-delay-multiple:10;" />
						<use href="#circle" style="--timing-delay-multiple:11;" />
						<use href="#circle" style="--timing-delay-multiple:12;" />
						<use href="#circle" style="--timing-delay-multiple:13;" />
						<use href="#circle" style="--timing-delay-multiple:14;" />
						<use href="#circle" style="--timing-delay-multiple:15;" />
						<use href="#circle" style="--timing-delay-multiple:16;" />
						<use href="#circle" style="--timing-delay-multiple:17;" />
						<use href="#circle" style="--timing-delay-multiple:18;" />
						<use href="#circle" style="--timing-delay-multiple:19;" />
						<use href="#circle" style="--timing-delay-multiple:20;" />
						<use href="#circle" style="--timing-delay-multiple:21;" />
						<use href="#circle" style="--timing-delay-multiple:22;" />
						<use href="#circle" style="--timing-delay-multiple:23;" />
						<use href="#circle" style="--timing-delay-multiple:24;" />
						<use href="#circle" style="--timing-delay-multiple:25;" />
						<use href="#circle" style="--timing-delay-multiple:26;" />
						<use href="#circle" style="--timing-delay-multiple:27;" />
						<use href="#circle" style="--timing-delay-multiple:28;" />
						<use href="#circle" style="--timing-delay-multiple:29;" />
						<use href="#circle" style="--timing-delay-multiple:30;" />
						<use href="#circle" style="--timing-delay-multiple:31;" />
						<use href="#circle" style="--timing-delay-multiple:32;" />
						<use href="#circle" style="--timing-delay-multiple:33;" />
						<use href="#circle" style="--timing-delay-multiple:34;" />
						<use href="#circle" style="--timing-delay-multiple:35;" />
						<use href="#circle" style="--timing-delay-multiple:36;" />
						<use href="#circle" style="--timing-delay-multiple:37;" />
						<use href="#circle" style="--timing-delay-multiple:38;" />
						<use href="#circle" style="--timing-delay-multiple:39;" />
						<use href="#circle" style="--timing-delay-multiple:40;" />
						<use href="#circle" style="--timing-delay-multiple:41;" />
						<use href="#circle" style="--timing-delay-multiple:42;" />
						<use href="#circle" style="--timing-delay-multiple:43;" />
						<use href="#circle" style="--timing-delay-multiple:44;" />
						<use href="#circle" style="--timing-delay-multiple:45;" />
						<use href="#circle" style="--timing-delay-multiple:46;" />
						<use href="#circle" style="--timing-delay-multiple:47;" />
						<use href="#circle" style="--timing-delay-multiple:48;" />
						<use href="#circle" style="--timing-delay-multiple:49;" />
					</g>

					<g id="c2">
						<use href="#circle2" />
						<use href="#circle2" style="--timing-delay-multiple:2;" />
						<use href="#circle2" style="--timing-delay-multiple:3;" />
						<use href="#circle2" style="--timing-delay-multiple:4;" />
						<use href="#circle2" style="--timing-delay-multiple:5;" />
						<use href="#circle2" style="--timing-delay-multiple:6;" />
						<use href="#circle2" style="--timing-delay-multiple:7;" />
						<use href="#circle2" style="--timing-delay-multiple:8;" />
						<use href="#circle2" style="--timing-delay-multiple:9;" />
						<use href="#circle2" style="--timing-delay-multiple:10;" />
						<use href="#circle2" style="--timing-delay-multiple:11;" />
						<use href="#circle2" style="--timing-delay-multiple:12;" />
						<use href="#circle2" style="--timing-delay-multiple:13;" />
						<use href="#circle2" style="--timing-delay-multiple:14;" />
						<use href="#circle2" style="--timing-delay-multiple:15;" />
						<use href="#circle2" style="--timing-delay-multiple:16;" />
						<use href="#circle2" style="--timing-delay-multiple:17;" />
						<use href="#circle2" style="--timing-delay-multiple:18;" />
						<use href="#circle2" style="--timing-delay-multiple:19;" />
						<use href="#circle2" style="--timing-delay-multiple:20;" />
						<use href="#circle2" style="--timing-delay-multiple:21;" />
						<use href="#circle2" style="--timing-delay-multiple:22;" />
						<use href="#circle2" style="--timing-delay-multiple:23;" />
						<use href="#circle2" style="--timing-delay-multiple:24;" />
						<use href="#circle2" style="--timing-delay-multiple:25;" />
						<use href="#circle2" style="--timing-delay-multiple:26;" />
						<use href="#circle2" style="--timing-delay-multiple:27;" />
						<use href="#circle2" style="--timing-delay-multiple:28;" />
						<use href="#circle2" style="--timing-delay-multiple:29;" />
						<use href="#circle2" style="--timing-delay-multiple:30;" />
						<use href="#circle2" style="--timing-delay-multiple:31;" />
						<use href="#circle2" style="--timing-delay-multiple:32;" />
						<use href="#circle2" style="--timing-delay-multiple:33;" />
						<use href="#circle2" style="--timing-delay-multiple:34;" />
						<use href="#circle2" style="--timing-delay-multiple:35;" />
						<use href="#circle2" style="--timing-delay-multiple:36;" />
						<use href="#circle2" style="--timing-delay-multiple:37;" />
						<use href="#circle2" style="--timing-delay-multiple:38;" />
						<use href="#circle2" style="--timing-delay-multiple:39;" />
						<use href="#circle2" style="--timing-delay-multiple:40;" />
						<use href="#circle2" style="--timing-delay-multiple:41;" />
						<use href="#circle2" style="--timing-delay-multiple:42;" />
						<use href="#circle2" style="--timing-delay-multiple:43;" />
						<use href="#circle2" style="--timing-delay-multiple:44;" />
						<use href="#circle2" style="--timing-delay-multiple:45;" />
						<use href="#circle2" style="--timing-delay-multiple:46;" />
						<use href="#circle2" style="--timing-delay-multiple:47;" />
						<use href="#circle2" style="--timing-delay-multiple:48;" />
						<use href="#circle2" style="--timing-delay-multiple:49;" />
					</g>

					<g id="c3">
						<use href="#circle3" />
						<use href="#circle3" style="--timing-delay-multiple:2;" />
						<use href="#circle3" style="--timing-delay-multiple:3;" />
						<use href="#circle3" style="--timing-delay-multiple:4;" />
						<use href="#circle3" style="--timing-delay-multiple:5;" />
						<use href="#circle3" style="--timing-delay-multiple:6;" />
						<use href="#circle3" style="--timing-delay-multiple:7;" />
						<use href="#circle3" style="--timing-delay-multiple:8;" />
						<use href="#circle3" style="--timing-delay-multiple:9;" />
						<use href="#circle3" style="--timing-delay-multiple:10;" />
						<use href="#circle3" style="--timing-delay-multiple:11;" />
						<use href="#circle3" style="--timing-delay-multiple:12;" />
						<use href="#circle3" style="--timing-delay-multiple:13;" />
						<use href="#circle3" style="--timing-delay-multiple:14;" />
						<use href="#circle3" style="--timing-delay-multiple:15;" />
						<use href="#circle3" style="--timing-delay-multiple:16;" />
						<use href="#circle3" style="--timing-delay-multiple:17;" />
						<use href="#circle3" style="--timing-delay-multiple:18;" />
						<use href="#circle3" style="--timing-delay-multiple:19;" />
						<use href="#circle3" style="--timing-delay-multiple:20;" />
						<use href="#circle3" style="--timing-delay-multiple:21;" />
						<use href="#circle3" style="--timing-delay-multiple:22;" />
						<use href="#circle3" style="--timing-delay-multiple:23;" />
						<use href="#circle3" style="--timing-delay-multiple:24;" />
						<use href="#circle3" style="--timing-delay-multiple:25;" />
						<use href="#circle3" style="--timing-delay-multiple:26;" />
						<use href="#circle3" style="--timing-delay-multiple:27;" />
						<use href="#circle3" style="--timing-delay-multiple:28;" />
						<use href="#circle3" style="--timing-delay-multiple:29;" />
						<use href="#circle3" style="--timing-delay-multiple:30;" />
						<use href="#circle3" style="--timing-delay-multiple:31;" />
						<use href="#circle3" style="--timing-delay-multiple:32;" />
						<use href="#circle3" style="--timing-delay-multiple:33;" />
						<use href="#circle3" style="--timing-delay-multiple:34;" />
						<use href="#circle3" style="--timing-delay-multiple:35;" />
						<use href="#circle3" style="--timing-delay-multiple:36;" />
						<use href="#circle3" style="--timing-delay-multiple:37;" />
						<use href="#circle3" style="--timing-delay-multiple:38;" />
						<use href="#circle3" style="--timing-delay-multiple:39;" />
						<use href="#circle3" style="--timing-delay-multiple:40;" />
						<use href="#circle3" style="--timing-delay-multiple:41;" />
						<use href="#circle3" style="--timing-delay-multiple:42;" />
						<use href="#circle3" style="--timing-delay-multiple:43;" />
						<use href="#circle3" style="--timing-delay-multiple:44;" />
						<use href="#circle3" style="--timing-delay-multiple:45;" />
						<use href="#circle3" style="--timing-delay-multiple:46;" />
						<use href="#circle3" style="--timing-delay-multiple:47;" />
						<use href="#circle3" style="--timing-delay-multiple:48;" />
						<use href="#circle3" style="--timing-delay-multiple:49;" />
					</g>

					<g id="c4">
						<use href="#circle4" />
						<use href="#circle4" style="--timing-delay-multiple:2;" />
						<use href="#circle4" style="--timing-delay-multiple:3;" />
						<use href="#circle4" style="--timing-delay-multiple:4;" />
						<use href="#circle4" style="--timing-delay-multiple:5;" />
						<use href="#circle4" style="--timing-delay-multiple:6;" />
						<use href="#circle4" style="--timing-delay-multiple:7;" />
						<use href="#circle4" style="--timing-delay-multiple:8;" />
						<use href="#circle4" style="--timing-delay-multiple:9;" />
						<use href="#circle4" style="--timing-delay-multiple:10;" />
						<use href="#circle4" style="--timing-delay-multiple:11;" />
						<use href="#circle4" style="--timing-delay-multiple:12;" />
						<use href="#circle4" style="--timing-delay-multiple:13;" />
						<use href="#circle4" style="--timing-delay-multiple:14;" />
						<use href="#circle4" style="--timing-delay-multiple:15;" />
						<use href="#circle4" style="--timing-delay-multiple:16;" />
						<use href="#circle4" style="--timing-delay-multiple:17;" />
						<use href="#circle4" style="--timing-delay-multiple:18;" />
						<use href="#circle4" style="--timing-delay-multiple:19;" />
						<use href="#circle4" style="--timing-delay-multiple:20;" />
						<use href="#circle4" style="--timing-delay-multiple:21;" />
						<use href="#circle4" style="--timing-delay-multiple:22;" />
						<use href="#circle4" style="--timing-delay-multiple:23;" />
						<use href="#circle4" style="--timing-delay-multiple:24;" />
						<use href="#circle4" style="--timing-delay-multiple:25;" />
						<use href="#circle4" style="--timing-delay-multiple:26;" />
						<use href="#circle4" style="--timing-delay-multiple:27;" />
						<use href="#circle4" style="--timing-delay-multiple:28;" />
						<use href="#circle4" style="--timing-delay-multiple:29;" />
						<use href="#circle4" style="--timing-delay-multiple:30;" />
						<use href="#circle4" style="--timing-delay-multiple:31;" />
						<use href="#circle4" style="--timing-delay-multiple:32;" />
						<use href="#circle4" style="--timing-delay-multiple:33;" />
						<use href="#circle4" style="--timing-delay-multiple:34;" />
						<use href="#circle4" style="--timing-delay-multiple:35;" />
						<use href="#circle4" style="--timing-delay-multiple:36;" />
						<use href="#circle4" style="--timing-delay-multiple:37;" />
						<use href="#circle4" style="--timing-delay-multiple:38;" />
						<use href="#circle4" style="--timing-delay-multiple:39;" />
						<use href="#circle4" style="--timing-delay-multiple:40;" />
						<use href="#circle4" style="--timing-delay-multiple:41;" />
						<use href="#circle4" style="--timing-delay-multiple:42;" />
						<use href="#circle4" style="--timing-delay-multiple:43;" />
						<use href="#circle4" style="--timing-delay-multiple:44;" />
						<use href="#circle4" style="--timing-delay-multiple:45;" />
						<use href="#circle4" style="--timing-delay-multiple:46;" />
						<use href="#circle4" style="--timing-delay-multiple:47;" />
						<use href="#circle4" style="--timing-delay-multiple:48;" />
						<use href="#circle4" style="--timing-delay-multiple:49;" />
					</g>

				</g>

			</g>

		</svg>

		<svg id="vs-logo" width="100%" height="100%" viewBox="0 0 700 200"
			style="fill-rule:evenodd;clip-rule:evenodd;stroke-linejoin:round;stroke-miterlimit:2;">

			<defs id="vs-logo-defs">
				<clipPath id="logo-reveal">
					<rect x="0" y="0" width="700" height="98" />
				</clipPath>
			</defs>

			<svg id="logo-animation" x="0" y="0" width="700" height="200"
				overflow="hidden" clip-path="url(#logo-reveal)">

				<style>
					:root {
						--logo-rise-delay: calc(var(--base-2x) + var(--base-interval) - 0.5s);
						--logo-rise-duration: var(--base-2x);
						--logo-rise-state: running;

						--logo-reveal-delay: calc(var(--base-2x) + var(--base-interval) + var(--base-2x) - 0.75s);
						--logo-reveal-duration: var(--base-interval);
						--logo-reveal-state: running;
					}

					#logo-animation {
						position: relative;
						z-index: 10;
					}

					#logo-reveal {
						transform-origin: top;
						transform: scaleY(1);
						animation: grow var(--logo-reveal-duration) ease-out var(--logo-reveal-delay) forwards;
						animation-play-state: var(--logo-reveal-state);
						height: 50%;
						overflow: hidden;
						position: absolute;
						top: 0;
						width: 100%;
					}

					#logo-text {
						animation: riseUp var(--logo-rise-duration) ease-out var(--logo-rise-delay) forwards;
						animation-play-state: var(--logo-rise-state);
						height: 100%;
						transform: translateY(50%);
						z-index: 20;
					}

					@keyframes logo-reflection {
						0% {
							opacity: 0;
						}

						100% {
							opacity: 0.33;
						}
					}

					@keyframes riseUp {
						0% {
							transform: translateY(50%);
						}

						100% {
							transform: translateY(0);
						}
					}

					@keyframes grow {
						0% {
							transform: scaleY(1);
						}

						100% {
							transform: scaleY(2);
						}
					}
				</style>

				<g id="logo-text">
					<path
						d="M94.501,31.908l-24.204,67.446l-22.942,-0l-24.024,-67.446l22.102,-0l13.813,44.623l13.634,-44.623l21.621,-0Z"
						style="fill:#3f3f3f;fill-rule:nonzero;" />
					<path
						d="M118.649,99.354l-21.02,-0l-0,-67.446l21.02,-0l0,67.446Zm0.601,-77.056l-22.222,0l0,-16.396l22.222,0l-0,16.396Z"
						style="fill:#3f3f3f;fill-rule:nonzero;" />
					<path
						d="M168.59,51.787l-1.742,0c-0.8,-0.28 -1.962,-0.49 -3.483,-0.631c-1.522,-0.14 -3.203,-0.21 -5.045,-0.21c-2.202,0 -4.514,0.321 -6.937,0.961c-2.422,0.641 -4.774,1.402 -7.057,2.282l0,45.165l-21.02,-0l-0,-67.446l21.02,-0l0,9.669c0.961,-0.881 2.293,-1.992 3.994,-3.333c1.702,-1.341 3.253,-2.412 4.655,-3.213c1.521,-0.921 3.293,-1.712 5.315,-2.373c2.022,-0.66 3.934,-0.991 5.736,-0.991c0.68,0 1.441,0.02 2.282,0.061c0.841,0.04 1.601,0.1 2.282,0.18l0,19.879Z"
						style="fill:#3f3f3f;fill-rule:nonzero;" />
					<path
						d="M203.693,100.675c-8.568,-0 -14.804,-1.762 -18.708,-5.285c-3.904,-3.524 -5.856,-9.289 -5.856,-17.297l0,-31.531l-8.048,0l0,-14.654l8.048,-0l0,-19.279l21.021,-0l-0,19.279l20.239,-0l0,14.654l-20.239,0l-0,23.903c-0,2.363 0.02,4.425 0.06,6.186c0.04,1.762 0.36,3.344 0.961,4.745c0.56,1.401 1.551,2.512 2.973,3.333c1.421,0.821 3.493,1.231 6.216,1.231c1.121,0 2.592,-0.24 4.414,-0.72c1.822,-0.481 3.093,-0.921 3.814,-1.322l1.801,0l0,14.835c-2.282,0.601 -4.704,1.071 -7.267,1.411c-2.562,0.341 -5.705,0.511 -9.429,0.511Z"
						style="fill:#3f3f3f;fill-rule:nonzero;" />
					<path
						d="M287.437,99.354l-21.021,-0l0,-7.448c-3.643,3.043 -6.986,5.355 -10.029,6.937c-3.043,1.582 -6.667,2.372 -10.871,2.372c-6.687,0 -11.902,-2.112 -15.645,-6.336c-3.744,-4.224 -5.616,-10.58 -5.616,-19.068l0,-43.903l21.141,-0l-0,33.452c-0,3.484 0.09,6.327 0.27,8.529c0.18,2.202 0.611,4.064 1.291,5.585c0.641,1.401 1.632,2.463 2.973,3.183c1.342,0.721 3.213,1.081 5.616,1.081c1.481,0 3.233,-0.36 5.255,-1.081c2.022,-0.72 3.894,-1.701 5.615,-2.943l0,-47.806l21.021,-0l-0,67.446Z"
						style="fill:#3f3f3f;fill-rule:nonzero;" />
					<path
						d="M332.96,81.756l-0,-14.053c-3.564,0.36 -6.446,0.67 -8.649,0.931c-2.202,0.26 -4.364,0.77 -6.486,1.531c-1.842,0.641 -3.273,1.612 -4.294,2.913c-1.021,1.301 -1.532,3.033 -1.532,5.195c0,3.163 0.851,5.335 2.553,6.516c1.702,1.181 4.214,1.772 7.537,1.772c1.842,0 3.724,-0.42 5.646,-1.261c1.922,-0.841 3.663,-2.022 5.225,-3.544Zm-0,10.451c-1.442,1.201 -2.733,2.282 -3.874,3.243c-1.141,0.961 -2.673,1.922 -4.594,2.883c-1.882,0.92 -3.714,1.621 -5.496,2.102c-1.782,0.48 -4.274,0.72 -7.477,0.72c-5.966,0 -10.921,-2.002 -14.865,-6.006c-3.943,-4.003 -5.915,-9.048 -5.915,-15.134c-0,-5.005 1.001,-9.049 3.003,-12.132c2.002,-3.083 4.884,-5.526 8.648,-7.327c3.804,-1.842 8.348,-3.123 13.633,-3.844c5.285,-0.721 10.971,-1.281 17.057,-1.682l-0,-0.36c-0,-3.724 -1.371,-6.296 -4.114,-7.718c-2.743,-1.421 -6.857,-2.132 -12.342,-2.132c-2.483,0 -5.385,0.451 -8.709,1.352c-3.323,0.901 -6.566,2.052 -9.729,3.453l-1.802,-0l0,-16.276c2.082,-0.6 5.445,-1.311 10.09,-2.132c4.645,-0.821 9.329,-1.231 14.054,-1.231c11.611,-0 20.069,1.932 25.374,5.795c5.306,3.864 7.958,9.76 7.958,17.688l0,45.885l-20.9,-0l-0,-7.147Z"
						style="fill:#3f3f3f;fill-rule:nonzero;" />
					<rect x="358.591" y="5.902" width="21.021" height="93.451"
						style="fill:#3f3f3f;fill-rule:nonzero;" />
					<path
						d="M416.207,100.975c-6.846,0 -12.862,-0.661 -18.047,-1.982c-5.185,-1.321 -10,-2.963 -14.444,-4.925l-0,-21.26l2.042,-0c4.484,3.803 9.429,6.726 14.834,8.768c5.405,2.042 10.651,3.063 15.735,3.063c1.282,0 2.973,-0.14 5.075,-0.42c2.102,-0.281 3.794,-0.721 5.075,-1.322c1.562,-0.68 2.883,-1.631 3.964,-2.852c1.081,-1.222 1.622,-2.833 1.622,-4.835c-0,-2.242 -0.881,-4.064 -2.643,-5.465c-1.761,-1.402 -3.864,-2.423 -6.306,-3.063c-3.043,-0.801 -6.296,-1.562 -9.759,-2.283c-3.464,-0.72 -6.697,-1.601 -9.7,-2.642c-6.927,-2.443 -11.891,-5.726 -14.894,-9.85c-3.003,-4.124 -4.505,-9.289 -4.505,-15.495c0,-8.368 3.544,-15.145 10.631,-20.33c7.086,-5.185 15.935,-7.777 26.545,-7.777c5.326,-0 10.621,0.54 15.886,1.621c5.265,1.081 9.98,2.543 14.144,4.385l-0,20.419l-1.982,0c-3.323,-2.842 -7.377,-5.245 -12.162,-7.207c-4.785,-1.961 -9.7,-2.942 -14.744,-2.942c-1.962,-0 -3.724,0.14 -5.286,0.42c-1.561,0.28 -3.203,0.821 -4.924,1.622c-1.402,0.64 -2.613,1.591 -3.634,2.852c-1.021,1.262 -1.531,2.673 -1.531,4.234c-0,2.283 0.81,4.094 2.432,5.436c1.622,1.341 4.755,2.552 9.399,3.633c3.003,0.681 5.896,1.342 8.679,1.982c2.782,0.641 5.755,1.522 8.918,2.643c6.206,2.242 10.821,5.255 13.844,9.039c3.023,3.783 4.534,8.778 4.534,14.984c0,8.889 -3.493,16.036 -10.48,21.441c-6.987,5.405 -16.426,8.108 -28.318,8.108Z"
						style="fill:#17699c;fill-rule:nonzero;" />
					<path
						d="M487.902,100.675c-8.568,-0 -14.804,-1.762 -18.708,-5.285c-3.904,-3.524 -5.856,-9.289 -5.856,-17.297l0,-31.531l-8.047,0l-0,-14.654l8.047,-0l0,-19.279l21.021,-0l-0,19.279l20.24,-0l-0,14.654l-20.24,0l-0,23.903c-0,2.363 0.02,4.425 0.06,6.186c0.04,1.762 0.36,3.344 0.961,4.745c0.561,1.401 1.551,2.512 2.973,3.333c1.421,0.821 3.493,1.231 6.216,1.231c1.121,0 2.592,-0.24 4.414,-0.72c1.822,-0.481 3.093,-0.921 3.814,-1.322l1.802,0l-0,14.835c-2.283,0.601 -4.705,1.071 -7.267,1.411c-2.563,0.341 -5.706,0.511 -9.43,0.511Z"
						style="fill:#17699c;fill-rule:nonzero;" />
					<path
						d="M578.465,31.908l-34.053,92.19l-22.582,-0l10.21,-26.366l-24.744,-65.824l22.102,-0l14.173,42.281l13.273,-42.281l21.621,-0Z"
						style="fill:#17699c;fill-rule:nonzero;" />
					<rect x="582.028" y="5.902" width="21.021" height="93.451"
						style="fill:#17699c;fill-rule:nonzero;" />
					<path
						d="M645.437,101.155c-12.732,0 -22.492,-3.043 -29.278,-9.129c-6.787,-6.086 -10.18,-14.754 -10.18,-26.005c-0,-11.011 3.163,-19.799 9.489,-26.366c6.326,-6.566 15.175,-9.849 26.546,-9.849c10.33,-0 18.097,2.782 23.302,8.348c5.206,5.565 7.808,13.533 7.808,23.903l0,7.568l-46.065,-0c0.2,3.123 0.861,5.735 1.982,7.837c1.121,2.102 2.603,3.774 4.444,5.015c1.802,1.241 3.904,2.132 6.307,2.673c2.402,0.54 5.024,0.81 7.867,0.81c2.443,0 4.845,-0.27 7.207,-0.81c2.363,-0.541 4.525,-1.252 6.487,-2.132c1.721,-0.761 3.313,-1.582 4.774,-2.463c1.462,-0.881 2.653,-1.661 3.574,-2.342l2.222,-0l-0,17.357c-1.722,0.68 -3.293,1.311 -4.715,1.892c-1.421,0.58 -3.373,1.171 -5.855,1.771c-2.283,0.601 -4.635,1.071 -7.057,1.412c-2.423,0.34 -5.376,0.51 -8.859,0.51Zm6.967,-44.203c-0.12,-4.444 -1.151,-7.827 -3.093,-10.15c-1.942,-2.322 -4.915,-3.483 -8.919,-3.483c-4.084,-0 -7.277,1.221 -9.579,3.663c-2.302,2.443 -3.574,5.766 -3.814,9.97l25.405,0Z"
						style="fill:#17699c;fill-rule:nonzero;" />
				</g>

			</svg>

		</svg>

		<svg id="tagline-animation" overflow="visible" x="50%" y="50%" width="700"
			height="200">
			<style>
				:root {

					--tagline-delay: calc(var(--base-interval));
					--tagline-duration: var(--base-4x);
					--tagline-state: running;

				}

				#tagline {
					animation: tagline var(--tagline-duration) ease-in-out var(--tagline-delay) forwards;
					animation-play-state: var(--tagline-state);
					opacity: 0;
					transform: scale(350) translateY(-6vh);
					transform-origin: bottom center;
					position: absolute;
					z-index: 200;
				}

				@keyframes tagline {
					0% {
						opacity: 1;
						transform: scale(550) translateY(-8vh);
					}


					100% {
						opacity: 1;
						transform: scale(1) translateY(0);
					}
				}
			</style>
			<g id="tagline">
				<path
					d="M41.551,183.414l-6.836,0l-0,-21.933l6.836,-0l-0,21.933Zm0.195,-25.058l-7.226,-0l-0,-5.333l7.226,0l0,5.333Z"
					style="fill:#3f3f3f;fill-rule:nonzero;" />
				<path
					d="M67.332,183.414l-6.875,0l0,-10.879c0,-0.885 -0.036,-1.767 -0.107,-2.646c-0.072,-0.879 -0.205,-1.527 -0.401,-1.944c-0.234,-0.494 -0.573,-0.849 -1.015,-1.064c-0.443,-0.215 -1.036,-0.322 -1.778,-0.322c-0.56,-0 -1.126,0.104 -1.699,0.312c-0.573,0.208 -1.185,0.541 -1.836,0.996l0,15.547l-6.836,0l0,-21.933l6.836,-0l0,2.421c1.12,-0.95 2.21,-1.692 3.272,-2.226c1.061,-0.534 2.236,-0.801 3.525,-0.801c2.24,0 3.952,0.706 5.137,2.119c1.185,1.413 1.777,3.46 1.777,6.143l0,14.277Z"
					style="fill:#3f3f3f;fill-rule:nonzero;" />
				<path
					d="M80.789,183.844c-2.786,-0 -4.814,-0.573 -6.084,-1.719c-1.269,-1.146 -1.904,-3.021 -1.904,-5.625l-0,-10.254l-2.617,0l-0,-4.765l2.617,-0l-0,-6.27l6.836,-0l-0,6.27l6.582,-0l-0,4.765l-6.582,0l-0,7.774c-0,0.768 0.006,1.438 0.019,2.011c0.013,0.573 0.117,1.088 0.313,1.543c0.182,0.456 0.504,0.817 0.967,1.084c0.462,0.267 1.136,0.401 2.021,0.401c0.365,-0 0.843,-0.078 1.436,-0.235c0.592,-0.156 1.005,-0.299 1.24,-0.429l0.586,-0l-0,4.824c-0.742,0.195 -1.53,0.348 -2.363,0.459c-0.834,0.11 -1.856,0.166 -3.067,0.166Z"
					style="fill:#3f3f3f;fill-rule:nonzero;" />
				<path
					d="M100.242,184c-4.14,0 -7.314,-0.99 -9.521,-2.969c-2.207,-1.979 -3.311,-4.798 -3.311,-8.457c0,-3.58 1.029,-6.439 3.086,-8.574c2.057,-2.135 4.935,-3.203 8.633,-3.203c3.359,-0 5.885,0.905 7.578,2.715c1.693,1.81 2.539,4.401 2.539,7.773l0,2.461l-14.98,0c0.065,1.016 0.28,1.865 0.644,2.549c0.365,0.684 0.847,1.227 1.446,1.631c0.585,0.403 1.269,0.693 2.05,0.869c0.782,0.176 1.634,0.264 2.559,0.264c0.794,-0 1.575,-0.088 2.344,-0.264c0.768,-0.176 1.471,-0.407 2.109,-0.693c0.56,-0.248 1.077,-0.515 1.553,-0.801c0.475,-0.287 0.862,-0.541 1.162,-0.762l0.723,0l-0,5.645c-0.56,0.221 -1.071,0.426 -1.534,0.615c-0.462,0.189 -1.097,0.381 -1.904,0.576c-0.742,0.195 -1.507,0.348 -2.295,0.459c-0.788,0.111 -1.748,0.166 -2.881,0.166Zm2.266,-14.375c-0.039,-1.445 -0.374,-2.546 -1.006,-3.301c-0.632,-0.755 -1.598,-1.133 -2.9,-1.133c-1.329,0 -2.367,0.398 -3.116,1.192c-0.748,0.794 -1.162,1.875 -1.24,3.242l8.262,0Z"
					style="fill:#3f3f3f;fill-rule:nonzero;" />
				<rect x="112.762" y="153.023" width="6.836" height="30.391"
					style="fill:#3f3f3f;fill-rule:nonzero;" />
				<rect x="124.832" y="153.023" width="6.836" height="30.391"
					style="fill:#3f3f3f;fill-rule:nonzero;" />
				<path
					d="M143.738,183.414l-6.836,0l0,-21.933l6.836,-0l0,21.933Zm0.196,-25.058l-7.227,-0l0,-5.333l7.227,0l-0,5.333Z"
					style="fill:#3f3f3f;fill-rule:nonzero;" />
				<path
					d="M162.078,176.5l0,-9.941c-0.338,-0.157 -0.755,-0.287 -1.25,-0.391c-0.495,-0.104 -0.989,-0.156 -1.484,-0.156c-1.641,-0 -2.875,0.53 -3.701,1.592c-0.827,1.061 -1.241,2.542 -1.241,4.443c0,0.95 0.062,1.754 0.186,2.412c0.124,0.658 0.355,1.24 0.693,1.748c0.326,0.495 0.752,0.869 1.28,1.123c0.527,0.254 1.201,0.381 2.021,0.381c0.612,-0 1.214,-0.104 1.807,-0.313c0.592,-0.208 1.155,-0.507 1.689,-0.898Zm6.836,4.395c0,2.031 -0.293,3.756 -0.879,5.175c-0.586,1.42 -1.387,2.526 -2.402,3.321c-1.016,0.807 -2.233,1.39 -3.652,1.748c-1.42,0.358 -2.995,0.537 -4.727,0.537c-1.458,-0 -2.842,-0.095 -4.15,-0.283c-1.309,-0.189 -2.445,-0.407 -3.409,-0.655l0,-5.488l0.801,0c0.339,0.13 0.739,0.273 1.201,0.43c0.463,0.156 0.928,0.299 1.397,0.429c0.56,0.144 1.107,0.261 1.64,0.352c0.534,0.091 1.081,0.137 1.641,0.137c1.159,-0 2.126,-0.121 2.9,-0.362c0.775,-0.241 1.358,-0.582 1.748,-1.025c0.391,-0.456 0.665,-0.993 0.821,-1.611c0.156,-0.619 0.234,-1.397 0.234,-2.334l0,-0.41c-0.768,0.677 -1.657,1.22 -2.666,1.63c-1.009,0.411 -2.047,0.616 -3.115,0.616c-2.839,-0 -5.029,-0.925 -6.572,-2.774c-1.543,-1.849 -2.315,-4.661 -2.315,-8.437c0,-1.719 0.238,-3.262 0.713,-4.629c0.475,-1.367 1.136,-2.533 1.983,-3.496c0.807,-0.925 1.783,-1.638 2.929,-2.139c1.146,-0.501 2.337,-0.752 3.574,-0.752c1.12,0 2.123,0.143 3.008,0.43c0.886,0.286 1.693,0.67 2.422,1.152l0.254,-0.976l6.621,-0l0,19.414Z"
					style="fill:#3f3f3f;fill-rule:nonzero;" />
				<path
					d="M185.379,184c-4.141,0 -7.315,-0.99 -9.522,-2.969c-2.207,-1.979 -3.31,-4.798 -3.31,-8.457c-0,-3.58 1.029,-6.439 3.086,-8.574c2.057,-2.135 4.935,-3.203 8.633,-3.203c3.359,-0 5.885,0.905 7.578,2.715c1.692,1.81 2.539,4.401 2.539,7.773l-0,2.461l-14.981,0c0.065,1.016 0.28,1.865 0.645,2.549c0.364,0.684 0.846,1.227 1.445,1.631c0.586,0.403 1.27,0.693 2.051,0.869c0.781,0.176 1.634,0.264 2.559,0.264c0.794,-0 1.575,-0.088 2.343,-0.264c0.769,-0.176 1.472,-0.407 2.11,-0.693c0.56,-0.248 1.077,-0.515 1.552,-0.801c0.476,-0.287 0.863,-0.541 1.163,-0.762l0.722,0l0,5.645c-0.56,0.221 -1.071,0.426 -1.533,0.615c-0.462,0.189 -1.097,0.381 -1.904,0.576c-0.742,0.195 -1.507,0.348 -2.295,0.459c-0.788,0.111 -1.748,0.166 -2.881,0.166Zm2.266,-14.375c-0.039,-1.445 -0.375,-2.546 -1.006,-3.301c-0.632,-0.755 -1.599,-1.133 -2.901,-1.133c-1.328,0 -2.366,0.398 -3.115,1.192c-0.749,0.794 -1.162,1.875 -1.24,3.242l8.262,0Z"
					style="fill:#3f3f3f;fill-rule:nonzero;" />
				<path
					d="M218.445,183.414l-6.875,0l0,-10.879c0,-0.885 -0.035,-1.767 -0.107,-2.646c-0.072,-0.879 -0.205,-1.527 -0.4,-1.944c-0.235,-0.494 -0.573,-0.849 -1.016,-1.064c-0.443,-0.215 -1.035,-0.322 -1.777,-0.322c-0.56,-0 -1.127,0.104 -1.7,0.312c-0.573,0.208 -1.185,0.541 -1.836,0.996l0,15.547l-6.836,0l0,-21.933l6.836,-0l0,2.421c1.12,-0.95 2.211,-1.692 3.272,-2.226c1.061,-0.534 2.236,-0.801 3.525,-0.801c2.24,0 3.952,0.706 5.137,2.119c1.185,1.413 1.777,3.46 1.777,6.143l0,14.277Z"
					style="fill:#3f3f3f;fill-rule:nonzero;" />
				<path
					d="M231.902,183.844c-2.786,-0 -4.814,-0.573 -6.084,-1.719c-1.269,-1.146 -1.904,-3.021 -1.904,-5.625l0,-10.254l-2.617,0l-0,-4.765l2.617,-0l0,-6.27l6.836,-0l0,6.27l6.582,-0l0,4.765l-6.582,0l0,7.774c0,0.768 0.007,1.438 0.02,2.011c0.013,0.573 0.117,1.088 0.312,1.543c0.182,0.456 0.505,0.817 0.967,1.084c0.462,0.267 1.136,0.401 2.021,0.401c0.365,-0 0.843,-0.078 1.436,-0.235c0.592,-0.156 1.006,-0.299 1.24,-0.429l0.586,-0l0,4.824c-0.742,0.195 -1.53,0.348 -2.363,0.459c-0.834,0.11 -1.856,0.166 -3.067,0.166Z"
					style="fill:#3f3f3f;fill-rule:nonzero;" />
				<path
					d="M258.523,184.02c-1.614,-0 -3.141,-0.176 -4.58,-0.528c-1.438,-0.351 -2.627,-0.761 -3.564,-1.23l-0,-5.781l0.566,-0c0.326,0.247 0.697,0.52 1.114,0.82c0.416,0.299 0.996,0.612 1.738,0.937c0.638,0.3 1.357,0.557 2.158,0.772c0.801,0.215 1.67,0.322 2.608,0.322c0.963,0 1.813,-0.15 2.548,-0.449c0.736,-0.3 1.104,-0.775 1.104,-1.426c-0,-0.508 -0.169,-0.892 -0.508,-1.152c-0.338,-0.261 -0.996,-0.508 -1.973,-0.742c-0.52,-0.131 -1.178,-0.271 -1.972,-0.42c-0.795,-0.15 -1.498,-0.323 -2.11,-0.518c-1.718,-0.534 -3.011,-1.325 -3.877,-2.373c-0.865,-1.048 -1.298,-2.425 -1.298,-4.131c-0,-0.976 0.224,-1.898 0.673,-2.764c0.45,-0.865 1.11,-1.637 1.983,-2.314c0.872,-0.664 1.95,-1.191 3.232,-1.582c1.283,-0.391 2.731,-0.586 4.346,-0.586c1.536,0 2.949,0.153 4.238,0.459c1.289,0.306 2.377,0.674 3.262,1.104l-0,5.546l-0.547,0c-0.234,-0.182 -0.605,-0.426 -1.113,-0.732c-0.508,-0.306 -1.003,-0.57 -1.485,-0.791c-0.572,-0.26 -1.214,-0.475 -1.923,-0.645c-0.71,-0.169 -1.436,-0.253 -2.178,-0.253c-0.99,-0 -1.826,0.169 -2.51,0.507c-0.683,0.339 -1.025,0.788 -1.025,1.348c-0,0.495 0.169,0.885 0.508,1.172c0.338,0.286 1.074,0.566 2.207,0.84c0.586,0.143 1.259,0.283 2.021,0.42c0.762,0.136 1.494,0.322 2.197,0.556c1.576,0.508 2.771,1.254 3.584,2.237c0.814,0.983 1.221,2.288 1.221,3.916c0,1.028 -0.241,2.008 -0.723,2.939c-0.481,0.931 -1.165,1.716 -2.05,2.354c-0.938,0.69 -2.041,1.224 -3.311,1.601c-1.27,0.378 -2.79,0.567 -4.561,0.567Z"
					style="fill:#3f3f3f;fill-rule:nonzero;" />
				<path
					d="M292.898,161.481l-11.074,29.98l-7.343,-0l3.32,-8.574l-8.047,-21.406l7.187,-0l4.61,13.75l4.316,-13.75l7.031,-0Z"
					style="fill:#3f3f3f;fill-rule:nonzero;" />
				<path
					d="M302.137,184.02c-1.615,-0 -3.142,-0.176 -4.58,-0.528c-1.439,-0.351 -2.627,-0.761 -3.565,-1.23l0,-5.781l0.567,-0c0.325,0.247 0.696,0.52 1.113,0.82c0.417,0.299 0.996,0.612 1.738,0.937c0.638,0.3 1.358,0.557 2.158,0.772c0.801,0.215 1.67,0.322 2.608,0.322c0.963,0 1.813,-0.15 2.549,-0.449c0.735,-0.3 1.103,-0.775 1.103,-1.426c0,-0.508 -0.169,-0.892 -0.508,-1.152c-0.338,-0.261 -0.996,-0.508 -1.972,-0.742c-0.521,-0.131 -1.179,-0.271 -1.973,-0.42c-0.794,-0.15 -1.497,-0.323 -2.109,-0.518c-1.719,-0.534 -3.011,-1.325 -3.877,-2.373c-0.866,-1.048 -1.299,-2.425 -1.299,-4.131c-0,-0.976 0.224,-1.898 0.674,-2.764c0.449,-0.865 1.11,-1.637 1.982,-2.314c0.873,-0.664 1.95,-1.191 3.233,-1.582c1.282,-0.391 2.731,-0.586 4.345,-0.586c1.537,0 2.949,0.153 4.239,0.459c1.289,0.306 2.376,0.674 3.261,1.104l0,5.546l-0.547,0c-0.234,-0.182 -0.605,-0.426 -1.113,-0.732c-0.508,-0.306 -1.003,-0.57 -1.484,-0.791c-0.573,-0.26 -1.214,-0.475 -1.924,-0.645c-0.71,-0.169 -1.436,-0.253 -2.178,-0.253c-0.989,-0 -1.826,0.169 -2.51,0.507c-0.683,0.339 -1.025,0.788 -1.025,1.348c0,0.495 0.169,0.885 0.508,1.172c0.338,0.286 1.074,0.566 2.207,0.84c0.586,0.143 1.26,0.283 2.021,0.42c0.762,0.136 1.494,0.322 2.198,0.556c1.575,0.508 2.77,1.254 3.584,2.237c0.813,0.983 1.22,2.288 1.22,3.916c0,1.028 -0.241,2.008 -0.722,2.939c-0.482,0.931 -1.166,1.716 -2.051,2.354c-0.938,0.69 -2.041,1.224 -3.311,1.601c-1.269,0.378 -2.789,0.567 -4.56,0.567Z"
					style="fill:#3f3f3f;fill-rule:nonzero;" />
				<path
					d="M324.441,183.844c-2.786,-0 -4.814,-0.573 -6.084,-1.719c-1.269,-1.146 -1.904,-3.021 -1.904,-5.625l0,-10.254l-2.617,0l-0,-4.765l2.617,-0l0,-6.27l6.836,-0l0,6.27l6.582,-0l0,4.765l-6.582,0l0,7.774c0,0.768 0.007,1.438 0.02,2.011c0.013,0.573 0.117,1.088 0.312,1.543c0.182,0.456 0.505,0.817 0.967,1.084c0.462,0.267 1.136,0.401 2.021,0.401c0.365,-0 0.844,-0.078 1.436,-0.235c0.592,-0.156 1.006,-0.299 1.24,-0.429l0.586,-0l0,4.824c-0.742,0.195 -1.53,0.348 -2.363,0.459c-0.833,0.11 -1.856,0.166 -3.067,0.166Z"
					style="fill:#3f3f3f;fill-rule:nonzero;" />
				<path
					d="M343.895,184c-4.141,0 -7.315,-0.99 -9.522,-2.969c-2.207,-1.979 -3.31,-4.798 -3.31,-8.457c-0,-3.58 1.028,-6.439 3.085,-8.574c2.058,-2.135 4.935,-3.203 8.633,-3.203c3.36,-0 5.886,0.905 7.578,2.715c1.693,1.81 2.539,4.401 2.539,7.773l0,2.461l-14.98,0c0.065,1.016 0.28,1.865 0.645,2.549c0.364,0.684 0.846,1.227 1.445,1.631c0.586,0.403 1.269,0.693 2.051,0.869c0.781,0.176 1.634,0.264 2.558,0.264c0.794,-0 1.576,-0.088 2.344,-0.264c0.768,-0.176 1.471,-0.407 2.109,-0.693c0.56,-0.248 1.078,-0.515 1.553,-0.801c0.475,-0.287 0.863,-0.541 1.162,-0.762l0.723,0l-0,5.645c-0.56,0.221 -1.071,0.426 -1.533,0.615c-0.463,0.189 -1.097,0.381 -1.905,0.576c-0.742,0.195 -1.507,0.348 -2.295,0.459c-0.787,0.111 -1.748,0.166 -2.88,0.166Zm2.265,-14.375c-0.039,-1.445 -0.374,-2.546 -1.006,-3.301c-0.631,-0.755 -1.598,-1.133 -2.9,-1.133c-1.328,0 -2.367,0.398 -3.115,1.192c-0.749,0.794 -1.162,1.875 -1.241,3.242l8.262,0Z"
					style="fill:#3f3f3f;fill-rule:nonzero;" />
				<path
					d="M382.625,183.414l0,-10.957c0,-1.081 -0.019,-1.992 -0.059,-2.734c-0.039,-0.742 -0.156,-1.348 -0.351,-1.817c-0.195,-0.468 -0.498,-0.81 -0.908,-1.025c-0.41,-0.215 -0.987,-0.322 -1.729,-0.322c-0.521,-0 -1.035,0.114 -1.543,0.341c-0.508,0.228 -1.061,0.551 -1.66,0.967l0,15.547l-6.875,0l0,-10.957c0,-1.068 -0.023,-1.976 -0.068,-2.725c-0.046,-0.748 -0.166,-1.357 -0.362,-1.826c-0.195,-0.468 -0.498,-0.81 -0.908,-1.025c-0.41,-0.215 -0.98,-0.322 -1.709,-0.322c-0.56,-0 -1.107,0.13 -1.64,0.39c-0.534,0.261 -1.055,0.567 -1.563,0.918l0,15.547l-6.836,0l0,-21.933l6.836,-0l0,2.421c1.12,-0.95 2.175,-1.692 3.164,-2.226c0.99,-0.534 2.103,-0.801 3.34,-0.801c1.341,0 2.519,0.319 3.535,0.957c1.016,0.638 1.79,1.589 2.324,2.852c1.315,-1.224 2.556,-2.165 3.721,-2.823c1.165,-0.657 2.347,-0.986 3.545,-0.986c1.016,0 1.927,0.163 2.734,0.488c0.808,0.326 1.491,0.814 2.051,1.465c0.612,0.703 1.071,1.54 1.377,2.51c0.306,0.97 0.459,2.236 0.459,3.799l0,14.277l-6.875,0Z"
					style="fill:#3f3f3f;fill-rule:nonzero;" />
				<path
					d="M401.238,184.02c-1.614,-0 -3.141,-0.176 -4.58,-0.528c-1.439,-0.351 -2.627,-0.761 -3.564,-1.23l-0,-5.781l0.566,-0c0.326,0.247 0.697,0.52 1.113,0.82c0.417,0.299 0.997,0.612 1.739,0.937c0.638,0.3 1.357,0.557 2.158,0.772c0.801,0.215 1.67,0.322 2.607,0.322c0.964,0 1.814,-0.15 2.549,-0.449c0.736,-0.3 1.104,-0.775 1.104,-1.426c-0,-0.508 -0.17,-0.892 -0.508,-1.152c-0.339,-0.261 -0.996,-0.508 -1.973,-0.742c-0.521,-0.131 -1.178,-0.271 -1.972,-0.42c-0.795,-0.15 -1.498,-0.323 -2.11,-0.518c-1.719,-0.534 -3.011,-1.325 -3.877,-2.373c-0.866,-1.048 -1.299,-2.425 -1.299,-4.131c0,-0.976 0.225,-1.898 0.674,-2.764c0.449,-0.865 1.11,-1.637 1.983,-2.314c0.872,-0.664 1.95,-1.191 3.232,-1.582c1.283,-0.391 2.731,-0.586 4.346,-0.586c1.536,0 2.949,0.153 4.238,0.459c1.289,0.306 2.376,0.674 3.262,1.104l-0,5.546l-0.547,0c-0.234,-0.182 -0.606,-0.426 -1.113,-0.732c-0.508,-0.306 -1.003,-0.57 -1.485,-0.791c-0.573,-0.26 -1.214,-0.475 -1.924,-0.645c-0.709,-0.169 -1.435,-0.253 -2.177,-0.253c-0.99,-0 -1.826,0.169 -2.51,0.507c-0.684,0.339 -1.025,0.788 -1.025,1.348c-0,0.495 0.169,0.885 0.507,1.172c0.339,0.286 1.075,0.566 2.207,0.84c0.586,0.143 1.26,0.283 2.022,0.42c0.762,0.136 1.494,0.322 2.197,0.556c1.576,0.508 2.77,1.254 3.584,2.237c0.814,0.983 1.221,2.288 1.221,3.916c-0,1.028 -0.241,2.008 -0.723,2.939c-0.482,0.931 -1.165,1.716 -2.051,2.354c-0.937,0.69 -2.041,1.224 -3.31,1.601c-1.27,0.378 -2.79,0.567 -4.561,0.567Z"
					style="fill:#3f3f3f;fill-rule:nonzero;" />
				<path
					d="M438.094,184c-4.141,0 -7.315,-0.99 -9.522,-2.969c-2.207,-1.979 -3.31,-4.798 -3.31,-8.457c-0,-3.58 1.028,-6.439 3.086,-8.574c2.057,-2.135 4.935,-3.203 8.633,-3.203c3.359,-0 5.885,0.905 7.578,2.715c1.692,1.81 2.539,4.401 2.539,7.773l-0,2.461l-14.981,0c0.065,1.016 0.28,1.865 0.645,2.549c0.364,0.684 0.846,1.227 1.445,1.631c0.586,0.403 1.27,0.693 2.051,0.869c0.781,0.176 1.634,0.264 2.558,0.264c0.795,-0 1.576,-0.088 2.344,-0.264c0.768,-0.176 1.472,-0.407 2.11,-0.693c0.559,-0.248 1.077,-0.515 1.552,-0.801c0.476,-0.287 0.863,-0.541 1.162,-0.762l0.723,0l0,5.645c-0.56,0.221 -1.071,0.426 -1.533,0.615c-0.462,0.189 -1.097,0.381 -1.904,0.576c-0.743,0.195 -1.508,0.348 -2.295,0.459c-0.788,0.111 -1.748,0.166 -2.881,0.166Zm2.265,-14.375c-0.039,-1.445 -0.374,-2.546 -1.005,-3.301c-0.632,-0.755 -1.599,-1.133 -2.901,-1.133c-1.328,0 -2.366,0.398 -3.115,1.192c-0.749,0.794 -1.162,1.875 -1.24,3.242l8.261,0Z"
					style="fill:#3f3f3f;fill-rule:nonzero;" />
				<path
					d="M471.16,183.414l-6.875,0l0,-10.879c0,-0.885 -0.036,-1.767 -0.107,-2.646c-0.072,-0.879 -0.205,-1.527 -0.401,-1.944c-0.234,-0.494 -0.573,-0.849 -1.015,-1.064c-0.443,-0.215 -1.035,-0.322 -1.778,-0.322c-0.559,-0 -1.126,0.104 -1.699,0.312c-0.573,0.208 -1.185,0.541 -1.836,0.996l0,15.547l-6.836,0l0,-21.933l6.836,-0l0,2.421c1.12,-0.95 2.211,-1.692 3.272,-2.226c1.061,-0.534 2.236,-0.801 3.525,-0.801c2.24,0 3.952,0.706 5.137,2.119c1.185,1.413 1.777,3.46 1.777,6.143l0,14.277Z"
					style="fill:#3f3f3f;fill-rule:nonzero;" />
				<path
					d="M489.324,176.5l0,-9.941c-0.338,-0.157 -0.755,-0.287 -1.25,-0.391c-0.495,-0.104 -0.989,-0.156 -1.484,-0.156c-1.641,-0 -2.874,0.53 -3.701,1.592c-0.827,1.061 -1.241,2.542 -1.241,4.443c0,0.95 0.062,1.754 0.186,2.412c0.124,0.658 0.355,1.24 0.693,1.748c0.326,0.495 0.752,0.869 1.28,1.123c0.527,0.254 1.201,0.381 2.021,0.381c0.612,-0 1.214,-0.104 1.807,-0.313c0.592,-0.208 1.155,-0.507 1.689,-0.898Zm6.836,4.395c0,2.031 -0.293,3.756 -0.879,5.175c-0.586,1.42 -1.386,2.526 -2.402,3.321c-1.016,0.807 -2.233,1.39 -3.652,1.748c-1.42,0.358 -2.995,0.537 -4.727,0.537c-1.458,-0 -2.842,-0.095 -4.15,-0.283c-1.309,-0.189 -2.445,-0.407 -3.409,-0.655l0,-5.488l0.801,0c0.339,0.13 0.739,0.273 1.201,0.43c0.463,0.156 0.928,0.299 1.397,0.429c0.56,0.144 1.107,0.261 1.641,0.352c0.533,0.091 1.08,0.137 1.64,0.137c1.159,-0 2.126,-0.121 2.901,-0.362c0.774,-0.241 1.357,-0.582 1.748,-1.025c0.39,-0.456 0.664,-0.993 0.82,-1.611c0.156,-0.619 0.234,-1.397 0.234,-2.334l0,-0.41c-0.768,0.677 -1.657,1.22 -2.666,1.63c-1.009,0.411 -2.047,0.616 -3.115,0.616c-2.839,-0 -5.029,-0.925 -6.572,-2.774c-1.543,-1.849 -2.315,-4.661 -2.315,-8.437c0,-1.719 0.238,-3.262 0.713,-4.629c0.475,-1.367 1.136,-2.533 1.983,-3.496c0.807,-0.925 1.783,-1.638 2.929,-2.139c1.146,-0.501 2.338,-0.752 3.575,-0.752c1.119,0 2.122,0.143 3.007,0.43c0.886,0.286 1.693,0.67 2.422,1.152l0.254,-0.976l6.621,-0l0,19.414Z"
					style="fill:#3f3f3f;fill-rule:nonzero;" />
				<path
					d="M508.231,183.414l-6.836,0l-0,-21.933l6.836,-0l-0,21.933Zm0.195,-25.058l-7.227,-0l0,-5.333l7.227,0l-0,5.333Z"
					style="fill:#3f3f3f;fill-rule:nonzero;" />
				<path
					d="M534.012,183.414l-6.875,0l-0,-10.879c-0,-0.885 -0.036,-1.767 -0.108,-2.646c-0.071,-0.879 -0.205,-1.527 -0.4,-1.944c-0.234,-0.494 -0.573,-0.849 -1.016,-1.064c-0.442,-0.215 -1.035,-0.322 -1.777,-0.322c-0.56,-0 -1.126,0.104 -1.699,0.312c-0.573,0.208 -1.185,0.541 -1.836,0.996l-0,15.547l-6.836,0l-0,-21.933l6.836,-0l-0,2.421c1.12,-0.95 2.21,-1.692 3.271,-2.226c1.062,-0.534 2.237,-0.801 3.526,-0.801c2.239,0 3.952,0.706 5.136,2.119c1.185,1.413 1.778,3.46 1.778,6.143l-0,14.277Z"
					style="fill:#3f3f3f;fill-rule:nonzero;" />
				<path
					d="M550.301,184c-4.141,0 -7.315,-0.99 -9.522,-2.969c-2.207,-1.979 -3.31,-4.798 -3.31,-8.457c-0,-3.58 1.028,-6.439 3.086,-8.574c2.057,-2.135 4.935,-3.203 8.633,-3.203c3.359,-0 5.885,0.905 7.578,2.715c1.692,1.81 2.539,4.401 2.539,7.773l-0,2.461l-14.981,0c0.065,1.016 0.28,1.865 0.645,2.549c0.364,0.684 0.846,1.227 1.445,1.631c0.586,0.403 1.27,0.693 2.051,0.869c0.781,0.176 1.634,0.264 2.558,0.264c0.795,-0 1.576,-0.088 2.344,-0.264c0.768,-0.176 1.472,-0.407 2.11,-0.693c0.559,-0.248 1.077,-0.515 1.552,-0.801c0.476,-0.287 0.863,-0.541 1.162,-0.762l0.723,0l0,5.645c-0.56,0.221 -1.071,0.426 -1.533,0.615c-0.462,0.189 -1.097,0.381 -1.904,0.576c-0.743,0.195 -1.508,0.348 -2.295,0.459c-0.788,0.111 -1.748,0.166 -2.881,0.166Zm2.265,-14.375c-0.039,-1.445 -0.374,-2.546 -1.005,-3.301c-0.632,-0.755 -1.599,-1.133 -2.901,-1.133c-1.328,0 -2.366,0.398 -3.115,1.192c-0.749,0.794 -1.162,1.875 -1.24,3.242l8.261,0Z"
					style="fill:#3f3f3f;fill-rule:nonzero;" />
				<path
					d="M574.051,184c-4.141,0 -7.315,-0.99 -9.522,-2.969c-2.207,-1.979 -3.31,-4.798 -3.31,-8.457c-0,-3.58 1.028,-6.439 3.086,-8.574c2.057,-2.135 4.935,-3.203 8.633,-3.203c3.359,-0 5.885,0.905 7.578,2.715c1.692,1.81 2.539,4.401 2.539,7.773l-0,2.461l-14.981,0c0.065,1.016 0.28,1.865 0.645,2.549c0.364,0.684 0.846,1.227 1.445,1.631c0.586,0.403 1.27,0.693 2.051,0.869c0.781,0.176 1.634,0.264 2.558,0.264c0.795,-0 1.576,-0.088 2.344,-0.264c0.768,-0.176 1.472,-0.407 2.11,-0.693c0.559,-0.248 1.077,-0.515 1.552,-0.801c0.476,-0.287 0.863,-0.541 1.162,-0.762l0.723,0l0,5.645c-0.56,0.221 -1.071,0.426 -1.533,0.615c-0.462,0.189 -1.097,0.381 -1.904,0.576c-0.743,0.195 -1.508,0.348 -2.295,0.459c-0.788,0.111 -1.748,0.166 -2.881,0.166Zm2.265,-14.375c-0.039,-1.445 -0.374,-2.546 -1.005,-3.301c-0.632,-0.755 -1.599,-1.133 -2.901,-1.133c-1.328,0 -2.366,0.398 -3.115,1.192c-0.749,0.794 -1.162,1.875 -1.24,3.242l8.261,0Z"
					style="fill:#3f3f3f;fill-rule:nonzero;" />
				<path
					d="M601.297,167.945l-0.566,0c-0.261,-0.091 -0.639,-0.159 -1.133,-0.205c-0.495,-0.045 -1.042,-0.068 -1.641,-0.068c-0.716,-0 -1.468,0.104 -2.256,0.312c-0.788,0.209 -1.553,0.456 -2.295,0.743l0,14.687l-6.836,0l0,-21.933l6.836,-0l0,3.144c0.313,-0.286 0.746,-0.648 1.299,-1.084c0.554,-0.436 1.058,-0.784 1.514,-1.045c0.495,-0.299 1.071,-0.556 1.728,-0.771c0.658,-0.215 1.28,-0.323 1.866,-0.323c0.221,0 0.468,0.007 0.742,0.02c0.273,0.013 0.521,0.032 0.742,0.059l-0,6.464Z"
					style="fill:#3f3f3f;fill-rule:nonzero;" />
				<path
					d="M610.75,183.414l-6.836,0l0,-21.933l6.836,-0l0,21.933Zm0.195,-25.058l-7.226,-0l-0,-5.333l7.226,0l0,5.333Z"
					style="fill:#3f3f3f;fill-rule:nonzero;" />
				<path
					d="M636.531,183.414l-6.875,0l0,-10.879c0,-0.885 -0.036,-1.767 -0.107,-2.646c-0.072,-0.879 -0.205,-1.527 -0.401,-1.944c-0.234,-0.494 -0.572,-0.849 -1.015,-1.064c-0.443,-0.215 -1.035,-0.322 -1.777,-0.322c-0.56,-0 -1.127,0.104 -1.7,0.312c-0.573,0.208 -1.185,0.541 -1.836,0.996l0,15.547l-6.836,0l0,-21.933l6.836,-0l0,2.421c1.12,-0.95 2.211,-1.692 3.272,-2.226c1.061,-0.534 2.236,-0.801 3.525,-0.801c2.24,0 3.952,0.706 5.137,2.119c1.185,1.413 1.777,3.46 1.777,6.143l0,14.277Z"
					style="fill:#3f3f3f;fill-rule:nonzero;" />
				<path
					d="M654.695,176.5l0,-9.941c-0.338,-0.157 -0.755,-0.287 -1.25,-0.391c-0.494,-0.104 -0.989,-0.156 -1.484,-0.156c-1.641,-0 -2.874,0.53 -3.701,1.592c-0.827,1.061 -1.24,2.542 -1.24,4.443c-0,0.95 0.061,1.754 0.185,2.412c0.124,0.658 0.355,1.24 0.693,1.748c0.326,0.495 0.752,0.869 1.28,1.123c0.527,0.254 1.201,0.381 2.021,0.381c0.612,-0 1.214,-0.104 1.807,-0.313c0.592,-0.208 1.155,-0.507 1.689,-0.898Zm6.836,4.395c0,2.031 -0.293,3.756 -0.879,5.175c-0.586,1.42 -1.386,2.526 -2.402,3.321c-1.016,0.807 -2.233,1.39 -3.652,1.748c-1.42,0.358 -2.995,0.537 -4.727,0.537c-1.458,-0 -2.842,-0.095 -4.15,-0.283c-1.309,-0.189 -2.445,-0.407 -3.408,-0.655l-0,-5.488l0.8,0c0.339,0.13 0.739,0.273 1.201,0.43c0.463,0.156 0.928,0.299 1.397,0.429c0.56,0.144 1.107,0.261 1.641,0.352c0.533,0.091 1.08,0.137 1.64,0.137c1.159,-0 2.126,-0.121 2.901,-0.362c0.774,-0.241 1.357,-0.582 1.748,-1.025c0.39,-0.456 0.664,-0.993 0.82,-1.611c0.156,-0.619 0.234,-1.397 0.234,-2.334l0,-0.41c-0.768,0.677 -1.657,1.22 -2.666,1.63c-1.009,0.411 -2.047,0.616 -3.115,0.616c-2.838,-0 -5.029,-0.925 -6.572,-2.774c-1.543,-1.849 -2.315,-4.661 -2.315,-8.437c0,-1.719 0.238,-3.262 0.713,-4.629c0.476,-1.367 1.136,-2.533 1.983,-3.496c0.807,-0.925 1.784,-1.638 2.929,-2.139c1.146,-0.501 2.338,-0.752 3.575,-0.752c1.119,0 2.122,0.143 3.007,0.43c0.886,0.286 1.693,0.67 2.422,1.152l0.254,-0.976l6.621,-0l0,19.414Z"
					style="fill:#3f3f3f;fill-rule:nonzero;" />
			</g>
		</svg>

	</svg>

	<svg id="drip" width="100%" viewBox="0 0 700 200" version="1.1" xmlns:xlink="http://www.w3.org/1999/xlink" xmlns="http://www.w3.org/2000/svg" preserveAspectRatio="xMidYMid meet" overflow="visible">

		<defs>
			<path id="ripple" d="M250,100c0,5.486 45.142,10 100,10c54.858,0 100,-4.514 100,-10c0,-5.486 -45.142,-10 -100,-10c-54.858,0 -100,4.514 -100,10Z" fill="none" stroke="#6dbae9cf" stroke-width="2"/>
			<path id="sink" d="M330,100c0,2.743 9.028,5 20,5c10.972,0 20,-2.257 20,-5c0,-2.743 -9.028,-5 -20,-5c-10.972,0 -20,2.257 -20,5Z" fill="#6dbae9cf"/>
			<path id="droplet" d="M349.874,92.208c0,0 3.634,3.79 4.803,5.013c1.074,1.123 1.732,2.633 1.732,4.291c-0,3.466 -2.872,6.28 -6.409,6.28c-3.537,0 -6.409,-2.814 -6.409,-6.28c-0,-1.658 0.658,-3.168 1.732,-4.291c1.169,-1.223 4.551,-5.013 4.551,-5.013Z" fill="#6dbae9cf"/>
		</defs>

		<style>
			:root {
				--drip-color: #6dbae9cf;
				--drip-state: running;
			}

			.drop {
				animation-play-state: var(--drip-state);
				transform-origin: center;
				opacity: 0;
			}

			.drop-1 {
				animation: drip var(--base-interval) linear var(--base-iterations);
				translate: 0% -110%;
				transform-origin: top center;
				opacity: 0;
				scale: 0.75;
			}

			@keyframes drip {
				0% {
					opacity: 0;
					translate: 0% -110%;
				}
				0.00001% {
					opacity: 1;
					translate: 0% -110%;
				}
				20.5% {
					opacity: 1;
					translate: 0% -2.5%;
				}
				20.50001% {
					opacity: 1;
					translate: 0% -110%;
				}
				100% {
					opacity: 1;
					translate: 0% -110%;
				}
			}

			.sink {
				opacity: 0;
				width: 20px;
				height: 5px;
				scale: 0;
				transform-origin: center;
				animation-play-state: var(--drip-state);
			}

			.sink-1 {
				animation: sink var(--base-interval) ease-out var(--base-iterations);
			}

			@keyframes sink {
				20.49999% {
					opacity: 0;
					scale: 0;
				}

				20.5% {
					opacity: 0.5;
					scale: 0.25;
				}

				37.5% {
					opacity: 1;
					scale: 0.5;
				}

				55.5% {
					scale: 0;
					opacity: 0;
				}
			}

			.drop-2 {
				animation: splash var(--base-interval) linear var(--base-iterations);
				rotate: 180deg;
				scale: 0.33;;
				opacity: 0;
				border-radius: 50%;
			}

			@keyframes splash {
				39.9999% {
					opacity: 0;
					rotate: 180deg;
					translate: 0% 0%;
				}

				40% {
					opacity: 1;
					rotate: 180deg;
					translate: 0% 0%;
				}

				51% {
					opacity: 1;
					rotate: 180deg;
					translate: 0% -20%;
				}

				51.00001% {
					opacity: 1;
					rotate: 0deg;
					translate: 0% -20%;
				}

				65.5% {
					opacity: 0.75;
					rotate: 0deg;
					translate: 0% 0%;
				}

				65.50001% {
					opacity: 0;
					rotate: 180deg;
					translate: 0% 0%;
				}
			}

			.drop-3 {
				animation: splash-left var(--base-interval) linear var(--base-iterations);
				border-radius: 50%;
				scale: 0.2;
				rotate: 135deg;
			}

			.drop-4 {
				animation: splash-right var(--base-interval) linear var(--base-iterations);
				border-radius: 50%;
				scale: 0.2;
				rotate: 225deg;
			}

			@keyframes splash-right {
				64.9999% {
					opacity: 0;
					translate: 0% 0%;
				}

				65% {
					opacity: 1;
					translate: 0% 0%;
				}

				73.5% {
					opacity: 1;
					translate: 1.5% -10%;
				}

				88.5% {
					opacity: 0;
					translate: 3% -5%;
				}

				88.51% {
					opacity: 0;
					translate: 0% 0%;
				}
			}

			@keyframes splash-left {
				64.9999% {
					opacity: 0;
					translate: 0% 0%;
				}

				65% {
					opacity: 1;
					translate: 0% 0%;
				}

				73.5% {
					opacity: 1;
					translate: -1% -12%;
				}

				88.5% {
					opacity: 0;
					translate: -2.5% -5%;
				}

				88.51% {
					opacity: 0;
					translate: 0% 0%;
				}
			}

			.ripple {
				width: 200px;
				height: 20px;
				border: var(--drip-color) solid 1px;
				transform-origin: center;
				scale: 0;
				opacity: 0;
				animation-play-state: var(--drip-state);
			}

			.ripple-1 {
				animation: ripple1 var(--base-interval) linear var(--base-iterations);
			}

			.ripple-2 {
				animation: ripple2 var(--base-interval) linear var(--base-iterations);
			}

			@keyframes ripple1 {
				20.49999% {
					scale: 0;
					opacity: 0;
				}

				20.5% {
					scale: 0.3 0.5;
					opacity: 0.5;
				}

				47.5% {
					scale: 0.8 0.8;
					opacity: 0;
				}
			}

			@keyframes ripple2 {
				30.4.9999% {
					scale: 0;
					opacity: 0;
				}

				30.4% {
					scale: 0.3 0.5;
					opacity: 0.25;
				}

				57.5% {
					scale: 0.8 0.8;
					opacity: 0;
				}
			}

			.sink-2 {
				animation: sink2 var(--base-interval) ease-out var(--base-iterations);
				width: 10px;
				height: 5px;
			}

			@keyframes sink2 {
				65.5% {
					opacity: 0;
					scale: 0;
				}

				65.50001% {
					opacity: 0.25;
					scale: 0;
				}

				72.5% {
					opacity: 1;
					scale: 0.5;
				}

				90% {
					opacity: 0;
					scale: 0;
				}
			}

		</style>

		<use href="#droplet" class="drop drop-1" />
		<use href="#droplet" class="drop drop-2" />
		<use href="#droplet" class="drop drop-3" />
		<use href="#droplet" class="drop drop-4" />
		<use href="#sink" class="sink sink-1" />
		<use href="#sink" class="sink sink-2" />
		<use href="#ripple" class="ripple ripple-1" />
		<use href="#ripple" class="ripple ripple-2" />
		<use href="#ripple" class="ripple ripple-3" />
		<use href="#ripple" class="ripple ripple-4" />

	</svg>

</svg>
